<?xml version="1.0" encoding="utf-8"?>
<!-- Generator: Adobe Illustrator 23.0.6, SVG Export Plug-In . SVG Version: 6.00 Build 0)  -->
<svg version="1.1" id="Layer_1" xmlns="http://www.w3.org/2000/svg" xmlns:xlink="http://www.w3.org/1999/xlink" x="0px" y="0px"
	 viewBox="0 0 263.8 202" style="enable-background:new 0 0 263.8 202;" xml:space="preserve">
<style type="text/css">
	.st0{fill:#9BAFBA;}
	.st1{fill:#404B55;}
	.st2{fill:#EAAD80;}
	.st3{fill:#AB7E5B;}
	.st4{fill:#FFC800;}
	.st5{fill:#5EB4EF;}
</style>
<title>Asset 2</title>
<g>
	<g id="Layer_1-2">
		<polyline class="st0" points="220.3,164.4 241.9,155.7 243.2,157.3 222.4,165.8 		"/>
		<polygon class="st1" points="215.6,171.1 207.6,174.4 203,168.8 217.1,163 223.6,164.1 221.5,168.7 		"/>
		<polygon class="st0" points="243.2,157.3 247.1,161.6 263.8,154.7 255.5,141.1 240.4,149.6 241.9,155.7 		"/>
		<polygon class="st1" points="260.2,153.8 248.1,159.2 247.1,158.9 259.7,152.8 261,153.4 		"/>
		<polygon class="st1" points="259.1,150.3 246,156.8 245.1,156 259,149.3 		"/>
		<polygon class="st1" points="257.7,147.5 244.1,154.4 243.9,153.2 257.6,146.8 		"/>
		<polygon class="st1" points="256.6,145 243.6,151.8 242.7,150.8 256,144.3 		"/>
		<polygon class="st2" points="106.7,21.1 84,75.6 60.6,74.9 54.2,15.3 		"/>
		<polygon class="st1" points="91,73.6 133.8,85.9 140.7,132.3 120.2,141.8 121,202 18,202 31,129 8,123 19.6,76.2 59.6,72.9 		"/>
		<polygon class="st3" points="98.9,39.7 106.7,21.1 54.2,15.3 56.2,34.1 		"/>
		<polyline class="st2" points="94.8,45 98.2,59.4 89.3,57.8 		"/>
		<polygon class="st4" points="110.9,101.1 95.9,98.5 95.9,106.2 110.9,108.5 		"/>
		<polygon class="st1" points="54.2,15.3 73,0 94.2,4.4 106.7,21.1 		"/>
		<polyline class="st1" points="100.5,12.9 122.4,20.5 118.3,25.6 96.4,20 		"/>
		<circle class="st4" cx="84" cy="9.9" r="3.5"/>
		<path class="st5" d="M97.5,23.2l1.4,6.4c0,0,0.6,2.4-1.4,2.3s-1.2-2.3-1.2-2.3L97.5,23.2z"/>
		<path class="st5" d="M84.8,20.3l1.4,6.4c0,0,0.6,2.4-1.4,2.3s-1.2-2.3-1.2-2.3L84.8,20.3z"/>
		<path class="st5" d="M76.1,24.6l1.4,6.4c0,0,0.6,2.4-1.4,2.3S74.9,31,74.9,31L76.1,24.6z"/>
		<path class="st5" d="M60.3,23l1.4,6.4c0,0,0.6,2.4-1.4,2.3s-1.3-2.3-1.3-2.3L60.3,23z"/>
		<polygon class="st2" points="194.9,178.1 120.2,141.8 138.9,133.2 152.8,138.8 199.6,164.1 		"/>
		<polygon class="st2" points="201.7,183.8 190,180.2 188.3,173.2 197.8,162 209.7,165.2 210.6,179.7 		"/>
		<polygon class="st2" points="11.8,124 0,202 18,202 31,129 		"/>
	</g>
</g>
<polygon class="st3" points="122.8,143.1 140.4,133.8 138.9,133.2 120.2,141.8 "/>
<polygon class="st3" points="11.8,124 11.5,125.7 30.7,130.8 31,129 "/>
</svg>
