<svg xmlns="http://www.w3.org/2000/svg" viewBox="0 0 737.84 270.64"><defs><style>.cls-1{fill:#c5d3d8;}.cls-2{fill:#a0aeb5;}.cls-3{fill:#606f7b;}.cls-4{fill:#404b55;}.cls-5{fill:#fff;}.cls-6{fill:#ffc800;}</style></defs><title>backwall</title><g id="Layer_2" data-name="Layer 2"><g id="Layer_1-2" data-name="Layer 1"><rect class="cls-1" width="737.84" height="240.15"/><polygon class="cls-2" points="387.3 187.42 394.27 263.87 411.83 270.64 442.25 270.64 458.05 256.03 457.94 186.06 387.3 187.42"/><polyline class="cls-3" points="384.76 183.79 396.14 200.99 422.19 203.23 443.57 197.9 459.61 184.9 459.61 183.79"/><polygon class="cls-2" points="400.44 171.88 425.14 169.3 450.42 171.88 459.61 183.79 444.86 194.12 422.27 200.16 398.2 197.47 384.76 183.79 400.44 171.88"/><polygon class="cls-4" points="403.63 173.77 424.7 171.56 446.28 173.77 454.12 183.93 441.53 192.74 422.26 197.9 401.72 195.6 390.25 183.93 403.63 173.77"/><polygon class="cls-5" points="231.25 220.2 231.25 218.99 234.38 218.99 234.38 220.2 238.34 223.15 238.34 244 235.29 245.67 230.22 245.67 227.82 243.64 227.82 223.52 231.25 220.2"/><polygon class="cls-2" points="231.25 218.99 231.01 216.79 235.02 216.56 234.38 218.99 231.25 218.99"/><polyline class="cls-6" points="238.34 231.15 238.34 244 235.29 245.67 230.22 245.67 227.82 243.64 227.82 230.52"/></g></g></svg>