<svg xmlns="http://www.w3.org/2000/svg" viewBox="0 0 737.84 190"><defs><style>.cls-1{fill:#c5d3d8;}.cls-2{fill:#a0aeb5;}.cls-3{fill:#606f7b;}.cls-4{fill:#404b55;}.cls-5{fill:#fff;}.cls-6{fill:#ffc800;}</style></defs><title>backwall long</title><g id="Layer_2" data-name="Layer 2"><g id="Layer_1-2" data-name="Layer 1"><rect class="cls-1" width="737.84" height="159.51"/><polygon class="cls-2" points="387.3 106.78 394.27 183.22 411.83 190 442.25 190 458.05 175.39 457.94 105.42 387.3 106.78"/><polyline class="cls-3" points="384.76 103.15 396.14 120.35 422.19 122.59 443.57 117.26 459.61 104.26 459.61 103.15"/><polygon class="cls-2" points="400.44 91.24 425.14 88.66 450.42 91.24 459.61 103.15 444.86 113.47 422.27 119.52 398.2 116.83 384.76 103.15 400.44 91.24"/><polygon class="cls-4" points="403.63 93.13 424.7 90.92 446.28 93.13 454.12 103.29 441.53 112.1 422.26 117.26 401.72 114.96 390.25 103.29 403.63 93.13"/><polygon class="cls-5" points="231.25 139.56 231.25 138.34 234.38 138.34 234.38 139.56 238.34 142.51 238.34 163.36 235.29 165.02 230.22 165.02 227.82 162.99 227.82 142.88 231.25 139.56"/><polygon class="cls-2" points="231.25 138.34 231.01 136.15 235.02 135.91 234.38 138.34 231.25 138.34"/><polyline class="cls-6" points="238.34 150.51 238.34 163.36 235.29 165.02 230.22 165.02 227.82 162.99 227.82 149.88"/></g></g></svg>