<svg xmlns="http://www.w3.org/2000/svg" viewBox="0 0 53.88 65.45"><defs><style>.cls-1{fill:#d8b37d;}.cls-2{fill:#ba9872;}.cls-3{fill:#ffe2c0;}</style></defs><title>bun_2</title><g id="Layer_2" data-name="Layer 2"><g id="Layer_1-2" data-name="Layer 1"><polygon class="cls-1" points="16.19 0 0 16.37 6.91 41.79 16.37 55.3 30.9 65.45 16.19 0"/><polygon class="cls-2" points="24.44 8.8 16.19 0 15.55 23.75 25.79 55.11 30.9 65.45 30.9 27.49 24.44 8.8"/><polygon class="cls-1" points="40.36 0.51 49.63 6.75 53.88 11.65 45.6 49.39 33.98 63.03 37.47 28.05 35.2 11.65 40.36 0.51"/><polygon class="cls-2" points="53.88 11.65 48.49 51.5 33.98 63.03 45.6 49.39 53.88 11.65"/><polygon class="cls-3" points="6.62 17.99 4.55 20.27 5.05 22.74 6.93 20.73 6.62 17.99"/><polygon class="cls-3" points="7.7 31.98 9.71 34.3 12.23 34.1 10.45 32 7.7 31.98"/><polygon class="cls-3" points="12.11 40.3 11.03 43.18 12.4 45.29 13.41 42.73 12.11 40.3"/><polygon class="cls-3" points="17.65 44.47 16.95 47.46 18.59 49.38 19.25 46.71 17.65 44.47"/><polygon class="cls-3" points="17.77 52.45 18.44 55.45 20.75 56.46 20.19 53.77 17.77 52.45"/><polygon class="cls-3" points="13.02 7.35 10.1 8.3 9.31 10.7 11.94 9.88 13.02 7.35"/><polygon class="cls-3" points="13.04 27.16 11.76 24.36 9.29 23.85 10.4 26.37 13.04 27.16"/></g></g></svg>