<svg xmlns="http://www.w3.org/2000/svg" viewBox="0 0 520.63 386.25"><defs><style>.cls-1{fill:#c18f02;}.cls-2{fill:#eaad80;}.cls-3{fill:#a0aeb5;}.cls-4{fill:#ce9772;}.cls-5{fill:#889499;}.cls-6{fill:#ffc800;}.cls-7{fill:#7a4c44;}.cls-8{fill:#404b55;}.cls-9{fill:#606f7b;}.cls-10{fill:#e2ac00;}.cls-11{fill:#7f634f;}.cls-12{fill:#c69675;}.cls-13{fill:#af8569;}.cls-14{fill:#5eb4ef;}.cls-15{fill:#f25347;}</style></defs><title>doug_1</title><g id="Layer_2" data-name="Layer 2"><g id="Layer_1-2" data-name="Layer 1"><polyline class="cls-1" points="520.63 347.16 520.63 364.73 458.86 385.02 458.86 367.09"/><polygon class="cls-2" points="112.24 22.26 89.55 76.74 66.2 76.09 59.98 16.23 73.59 6.17 99.35 10.58 112.24 22.26"/><polygon class="cls-3" points="96.55 74.74 130.35 87.06 146.28 133.49 125.72 142.93 126.57 203.16 34.57 203.16 36.57 130.16 36.57 124.13 25.21 77.33 65.2 74.09 96.55 74.74"/><polyline class="cls-2" points="100.37 46.2 103.81 60.53 94.89 58.98"/><polygon class="cls-2" points="200.45 179.26 125.72 142.93 144.57 134.16 158.34 139.99 205.15 165.3 200.45 179.26"/><polygon class="cls-4" points="69.17 6.12 59.87 14.65 60.81 24.17 61.03 26.32 71.56 16.51 77.59 23.84 89.01 18.95 96.29 23.84 104.05 22.26 107.99 30.83 111.33 24.39 116.78 17.73 107.99 8.52 88.9 2.35 69.17 6.12"/><polygon class="cls-5" points="126.15 171.63 36.57 126.13 36.57 130.16 126.15 173.56 126.15 171.63"/><polygon class="cls-6" points="83.16 108.12 96.55 115 109.42 108.12 96.29 111.56 83.16 108.12"/><polygon class="cls-6" points="107.99 104.84 113.22 105.52 112.24 109.74 111.36 106.36 107.99 104.84"/><polygon class="cls-7" points="69.17 3.76 59.71 12.58 60.58 24.38 71.58 14.07 77.59 21.48 89.01 16.59 96.29 21.48 104.55 19.8 107.99 28.47 118.09 16.12 107.99 6.17 88.9 0 69.17 3.76"/><polyline class="cls-8" points="38.3 203.16 30.48 273.51 8.33 352.14 38.3 352.14 59.71 273.51 80.88 217.03 108.29 276.9 79.58 352.14 112.24 352.14 140.63 270.55 120.42 203.16"/><polyline class="cls-9" points="152.41 176.31 168.9 197.84 216.24 192.8 216.24 184.05 172.64 186.68 165.36 172.92 154.74 166.54"/><polygon class="cls-2" points="204.82 181.85 192.81 179.75 190.35 172.96 198.45 160.72 210.59 162.5 213.19 176.77 204.82 181.85"/><path class="cls-8" d="M205.15,165.3l-50.41,1.24,16.5,23,45-5.47Zm-39.75,5,34.94-1.82,7.24,12.26-32.4,3.57Z"/><polygon class="cls-9" points="200.34 171.54 205.82 180.95 207.58 180.75 200.34 168.49 165.4 170.31 167.71 173.62 200.34 171.54"/><polygon class="cls-2" points="154.62 185.59 142.95 182.09 141.3 175.05 150.78 163.85 162.62 167.04 163.53 181.52 154.62 185.59"/><polygon class="cls-8" points="186.49 187.67 259.57 352.14 277.84 352.14 199.69 186.06 186.49 187.67"/><polygon class="cls-9" points="181.09 188.32 251.68 352.14 259.57 352.14 186.49 187.67 181.09 188.32"/><polygon class="cls-2" points="57.63 136.75 150.57 184.05 154.74 166.54 66.97 119.21 57.63 136.75"/><polygon class="cls-4" points="66.97 119.21 71.37 121.59 60.6 138.26 57.63 136.75 66.97 119.21"/><polygon class="cls-4" points="148.08 135.65 129.08 144.56 125.72 142.93 144.57 134.16 148.08 135.65"/><polygon class="cls-6" points="242.99 367.09 240.33 347.16 458.86 367.09 458.86 385.02 242.99 367.09"/><polygon class="cls-10" points="240.33 347.16 325.35 337.2 520.63 347.16 458.86 367.09 240.33 347.16"/><polygon class="cls-11" points="370.83 305.87 335.04 311.31 335.04 353.67 370.83 346.54 370.83 305.87"/><polygon class="cls-12" points="287.36 304.54 287.36 347.05 335.04 353.67 335.04 311.31 287.36 304.54"/><polyline class="cls-13" points="335.04 311.31 287.36 304.54 329.1 300.69 370.83 305.87 334.95 311.33"/><polygon class="cls-14" points="296.74 327.32 309.13 335.86 322.78 330.69 309.32 332.42 296.74 327.32"/><polygon class="cls-14" points="321.78 327.25 326.89 328.6 325.38 332.65 324.94 329.19 321.78 327.25"/><polygon class="cls-8" points="145.37 159.96 136.9 167.8 134.49 177.41 139.93 180.95 141.86 170.45 149.94 162.88 145.37 159.96"/><polygon class="cls-15" points="144.52 164.1 141.51 164.26 139.64 166.08 140 168.88 142.91 168.47 144.78 166.51 144.52 164.1"/><polygon class="cls-6" points="141.68 165.26 142.91 165.56 143.59 166.57 142.9 167.65 141.21 167.81 140.63 166.35 141.68 165.26"/><polygon class="cls-15" points="141.47 166.24 142.34 166.36 142.68 166.96 141.97 166.84 141.47 166.24"/><polygon class="cls-9" points="141.31 179.34 139.93 180.95 140.32 178.84 141.31 179.34"/><polygon class="cls-9" points="149.94 162.88 150.24 164.11 149.21 163.56 149.94 162.88"/><polygon class="cls-2" points="84.56 352.14 82.7 361.72 103.16 362.84 106.5 352.14 84.56 352.14"/><polygon class="cls-2" points="33.04 352.14 30.44 362.84 10.54 362.84 12.58 352.14 33.04 352.14"/><polygon class="cls-8" points="30.44 362.84 38.67 369.47 54.21 373.78 54.21 384.02 40.71 386.25 2.97 383.13 0 380.31 4.64 361.42 10.54 362.84 30.44 362.84"/><polygon class="cls-3" points="1.3 375.01 0 380.31 2.97 383.13 40.71 386.25 54.21 384.02 54.21 380.63 40.57 382.21 5.17 377.68 1.3 375.01"/><polygon class="cls-8" points="106.92 360.98 114.12 369.53 128.39 374.4 128.29 384.59 114.62 385.36 77.44 378.22 74.58 375.8 81.42 356.81 87.13 358.85 106.92 360.98"/><polygon class="cls-3" points="76.33 370.97 74.47 376.09 77.44 378.22 114.62 385.36 128.29 384.59 128.33 380.22 114.92 380.86 80.21 373.03 76.33 370.97"/><polygon class="cls-12" points="340.44 303.64 340.44 351.45 394.07 358.9 394.07 311.26 340.44 303.64"/><polygon class="cls-14" points="350.99 329.27 364.93 338.87 380.28 333.05 365.14 335 350.99 329.27"/><polygon class="cls-14" points="379.16 329.19 384.9 330.7 383.2 335.26 382.71 331.37 379.16 329.19"/><polygon class="cls-11" points="434.33 305.13 394.07 311.26 394.07 358.9 434.33 350.88 434.33 305.13"/><polyline class="cls-13" points="394.07 311.26 340.44 303.64 387.39 299.31 434.33 305.13 393.97 311.27"/><polygon class="cls-12" points="406.59 308.61 406.59 356.42 460.22 363.87 460.22 316.22 406.59 308.61"/><polygon class="cls-14" points="417.14 334.23 431.08 343.84 446.43 338.02 431.29 339.96 417.14 334.23"/><polygon class="cls-14" points="445.31 334.15 451.05 335.66 449.35 340.23 448.85 336.33 445.31 334.15"/><polygon class="cls-11" points="500.48 310.09 460.22 316.22 460.22 363.87 500.48 355.85 500.48 310.09"/><polyline class="cls-13" points="460.22 316.22 406.59 308.61 453.53 304.27 500.48 310.09 460.12 316.24"/><polygon class="cls-12" points="309.14 257.49 309.14 305.3 362.77 312.75 362.77 265.11 309.14 257.49"/><polygon class="cls-14" points="319.69 283.11 333.63 292.72 348.98 286.9 333.84 288.84 319.69 283.11"/><polygon class="cls-14" points="347.86 283.04 353.6 284.54 351.9 289.11 351.41 285.22 347.86 283.04"/><polygon class="cls-11" points="403.03 258.97 362.77 265.11 362.77 312.75 403.03 304.73 403.03 258.97"/><polyline class="cls-13" points="362.77 265.11 309.14 257.49 356.09 253.16 403.03 258.97 362.67 265.12"/><polygon class="cls-12" points="387.39 257.57 387.39 305.38 441.02 312.83 441.02 265.19 387.39 257.57"/><polygon class="cls-14" points="397.94 283.2 411.88 292.8 427.23 286.98 412.09 288.93 397.94 283.2"/><polygon class="cls-14" points="426.11 283.12 431.85 284.63 430.15 289.19 429.65 285.3 426.11 283.12"/><polygon class="cls-11" points="481.28 259.06 441.02 265.19 441.02 312.83 481.28 304.81 481.28 259.06"/><polyline class="cls-13" points="441.02 265.19 387.39 257.57 434.33 253.24 481.28 259.06 440.92 265.2"/></g></g></svg>