<svg xmlns="http://www.w3.org/2000/svg" viewBox="0 0 403 185.38"><defs><style>.cls-1{fill:#a0aeb5;}.cls-2{fill:#7a4c44;}.cls-3{fill:#b26e67;}.cls-4{fill:#818e96;}.cls-5{fill:#606f7b;}.cls-6{fill:#d8b37d;}.cls-7{fill:#ba9872;}.cls-8{fill:#ffe2c0;}</style></defs><title>grill</title><g id="Layer_2" data-name="Layer 2"><g id="Layer_1-2" data-name="Layer 1"><polygon class="cls-1" points="66 69.38 0 185.38 380 185.38 350 74.38 66 69.38"/><polygon class="cls-2" points="190.93 128.24 158.74 132.64 156.62 160.46 160.24 164.32 185.06 169.27 195.56 152.95 194.38 132.14 190.93 128.24"/><polygon class="cls-2" points="137.52 117.14 104.47 98.29 88.94 125.51 90.62 131.62 105.9 145.49 127.27 139.64 139.19 123.25 137.52 117.14"/><polygon class="cls-3" points="125.57 97.44 102.8 92.19 88.93 107.47 88.94 125.51 104.23 139.38 125.6 133.53 137.52 117.14 125.57 97.44"/><polygon class="cls-3" points="172.98 121.09 155.11 128.78 150.35 147.85 156.62 160.46 181.43 165.41 191.94 149.09 190.75 128.28 172.98 121.09"/><polygon class="cls-4" points="293.57 73.12 294 18.38 351 18.38 403 87.38 403 185.38 348 185.38 293.57 73.12"/><polygon class="cls-5" points="348 87.38 403 87.38 351 18.38 294 18.38 348 87.38"/><rect class="cls-5" x="348" y="87.38" width="55" height="98"/><polygon class="cls-1" points="120 0.38 128 18.38 120 33.38 128 52.38 124 33.38 133 15.38 120 0.38"/><polygon class="cls-1" points="161 2.38 165 17.38 157 38.38 169 50.38 161 37.38 169 17.38 161 2.38"/><polygon class="cls-1" points="201.78 0 209 16.38 199.54 32.92 213 51.38 203.53 33.2 213.73 15.85 201.78 0"/><polygon class="cls-6" points="190.18 93.03 195.38 83.15 199.79 78.38 238.2 82.54 249.84 96.06 217.87 92.93 190.18 93.03"/><polygon class="cls-7" points="199.79 78.38 241.67 79.48 249.84 96.06 238.2 82.54 199.79 78.38"/><polygon class="cls-6" points="281.61 122.11 268.01 103.53 241.82 106.32 224.78 111.59 214.66 126.26 281.61 122.11"/><polygon class="cls-6" points="271.62 128.86 281.61 122.11 258.26 117.71 225.67 122.85 214.66 126.26 252.13 132.28 271.62 128.86"/><polygon class="cls-8" points="265.36 109.81 263.44 107.41 260.92 107.51 262.61 109.68 265.36 109.81"/><polygon class="cls-8" points="251.37 108.66 248.76 110.28 248.57 112.79 250.93 111.37 251.37 108.66"/><polygon class="cls-8" points="247.41 116.14 244.37 115.72 242.61 117.52 245.33 117.94 247.41 116.14"/><polygon class="cls-8" points="269.11 125 266.3 123.75 264.11 124.99 266.6 126.15 269.11 125"/><polygon class="cls-8" points="242.46 111.7 239.8 110.17 237.49 111.19 239.86 112.59 242.46 111.7"/><polygon class="cls-8" points="237.47 116.51 234.63 115.34 232.47 116.65 235 117.73 237.47 116.51"/><polygon class="cls-8" points="235.74 123.51 233.62 121.28 231.12 121.61 232.99 123.62 235.74 123.51"/><polygon class="cls-8" points="229.57 115.36 226.5 115.55 225.14 117.67 227.89 117.54 229.57 115.36"/><polygon class="cls-8" points="267.58 116.79 264.51 116.97 263.14 119.09 265.89 118.96 267.58 116.79"/><polygon class="cls-8" points="274.86 117.81 274.38 114.78 272.13 113.62 272.53 116.34 274.86 117.81"/><polygon class="cls-8" points="255.29 114.69 258.26 113.88 259.16 111.52 256.49 112.21 255.29 114.69"/><polygon class="cls-8" points="252.9 121.36 255.36 123.2 257.77 122.47 255.59 120.79 252.9 121.36"/><polygon class="cls-8" points="240.17 123.77 242.63 125.61 245.05 124.88 242.86 123.2 240.17 123.77"/></g></g></svg>