<svg xmlns="http://www.w3.org/2000/svg" viewBox="0 0 403 185.38"><defs><style>.cls-1{fill:#a0aeb5;}.cls-2{fill:#818e96;}.cls-3{fill:#606f7b;}</style></defs><title>grill plain</title><g id="Layer_2" data-name="Layer 2"><g id="Layer_1-2" data-name="Layer 1"><polygon class="cls-1" points="66 69.38 0 185.38 380 185.38 350 74.38 66 69.38"/><polygon class="cls-2" points="293.57 73.12 294 18.38 351 18.38 403 87.38 403 185.38 348 185.38 293.57 73.12"/><polygon class="cls-3" points="348 87.38 403 87.38 351 18.38 294 18.38 348 87.38"/><rect class="cls-3" x="348" y="87.38" width="55" height="98"/><polygon class="cls-1" points="120 0.38 128 18.38 120 33.38 128 52.38 124 33.38 133 15.38 120 0.38"/><polygon class="cls-1" points="161 2.38 165 17.38 157 38.38 169 50.38 161 37.38 169 17.38 161 2.38"/><polygon class="cls-1" points="201.78 0 209 16.38 199.54 32.92 213 51.38 203.53 33.2 213.73 15.85 201.78 0"/></g></g></svg>