<svg xmlns="http://www.w3.org/2000/svg" viewBox="0 0 736.77 265.45"><defs><style>.cls-1{fill:#ffc800;}.cls-2{fill:#c5d3d8;}.cls-3{fill:#a0aeb5;}.cls-4{fill:#606f7b;}.cls-5{fill:#404b55;}</style></defs><title>pissspill</title><g id="Layer_2" data-name="Layer 2"><g id="Layer_1-2" data-name="Layer 1"><polygon class="cls-1" points="0.02 243.57 19.77 246.23 22.72 251.23 15.19 254.23 22.72 257.56 33 257.56 38.3 260.19 29.39 263.16 11.79 265.45 0.02 265.45 0.02 243.57"/><rect class="cls-2" width="736.77" height="240.15"/><polygon class="cls-3" points="31.11 181.18 38.07 257.63 55.63 264.4 86.06 264.4 101.85 249.79 101.75 179.83 31.11 181.18"/><polyline class="cls-4" points="28.57 177.55 39.95 194.76 65.99 196.99 87.37 191.66 103.41 178.66 103.41 177.55"/><polygon class="cls-3" points="44.24 165.65 68.94 163.06 94.23 165.65 103.41 177.55 88.66 187.88 66.08 193.93 42 191.24 28.57 177.55 44.24 165.65"/><polygon class="cls-5" points="47.43 167.53 68.51 165.33 90.08 167.53 97.92 177.69 85.34 186.5 66.06 191.66 45.52 189.37 34.06 177.69 47.43 167.53"/></g></g></svg>