<?xml version="1.0" encoding="utf-8"?>
<!-- Generator: Adobe Illustrator 23.0.6, SVG Export Plug-In . SVG Version: 6.00 Build 0)  -->
<svg version="1.1" id="Layer_1" xmlns="http://www.w3.org/2000/svg" xmlns:xlink="http://www.w3.org/1999/xlink" x="0px" y="0px"
	 viewBox="0 0 430.3 399" style="enable-background:new 0 0 430.3 399;" xml:space="preserve">
<style type="text/css">
	.st0{fill:#A0AEB5;}
	.st1{fill:#B28070;}
	.st2{fill:#896258;}
	.st3{opacity:0.2;fill:#FFC800;enable-background:new    ;}
	.st4{fill:#404B55;}
	.st5{fill:#818E96;}
	.st6{fill:#FFD063;}
	.st7{fill:#FFC800;}
	.st8{fill:#9BAFBA;}
	.st9{fill:#4C322B;}
	.st10{fill:#B53C39;}
	.st11{fill:#F45347;}
</style>
<title>Quinn</title>
<g>
	<g id="Layer_1-2">
		<polygon class="st0" points="0,0.2 132.2,0 176,88 0,88 		"/>
		<polygon class="st1" points="254.7,119.5 302.5,102.2 315.8,140.9 311.7,174.4 286.1,182.2 263.1,159.1 		"/>
		<polygon class="st2" points="270.1,151 268.6,159.3 277.1,156.4 		"/>
		<polyline class="st3" points="176,88 263,300 0,300 0,88 		"/>
		<polygon class="st4" points="260,188 244,205 246,268 274,261 289.9,291.2 286.7,327 408.1,327 376.1,268.5 366,216 383,203 
			355,163 297,176 		"/>
		<polygon class="st0" points="0.1,300 226.2,300 262.1,324.4 262.1,394.7 0.1,394.7 		"/>
		<rect y="300" class="st5" width="263" height="18"/>
		<polygon class="st6" points="7.2,302.6 2.3,313 240.4,313 230.9,302.6 		"/>
		<polygon class="st7" points="225.4,301.5 215.6,310.4 215.3,312.9 228.1,300.8 		"/>
		<polygon class="st1" points="218,278 249,294 251,267 274,261 263,327 214,289 		"/>
		<polyline class="st1" points="383,203 370.9,256.2 319.9,273.8 316.5,261 358.7,241.9 366,216 		"/>
		<polyline class="st8" points="317.7,267.8 283.3,283 280.5,279.2 313.5,264.2 		"/>
		<polygon class="st1" points="313,279.4 301.3,275.9 299.7,268.9 309.1,257.6 321,260.8 321.9,275.3 		"/>
		<polyline class="st8" points="283.7,278.8 274.1,276 242.1,287 241.1,294.8 243.7,295.7 254.1,299.7 282.4,292.8 285.7,281 		"/>
		<polygon class="st5" points="276,290.4 285.7,281 282.4,292.8 254.1,299.7 241.1,294.8 		"/>
		<polygon class="st6" points="52.6,298.1 39.8,310.7 41.9,312.1 55.4,298.6 		"/>
		<polygon class="st6" points="33.6,299 16.9,304.5 18.1,306.6 35.9,300.6 		"/>
		<polygon class="st6" points="78.8,298 80.2,307.1 84.2,305.7 80.4,293.6 		"/>
		<polygon class="st6" points="101,306.5 112.1,300 112.1,304.5 101,309 		"/>
		<polygon class="st6" points="153.4,299.7 162.7,308.6 158.4,309.8 151,300.4 		"/>
		<polygon class="st7" points="65,307.1 76.6,310.9 78.8,309.8 64.4,305.2 		"/>
		<polygon class="st7" points="95.8,308.4 103.8,299.3 103.6,296.8 93.7,308.2 		"/>
		<polygon class="st7" points="42,305.2 32.2,304.5 39.7,306.5 55.6,308.4 52,306.4 		"/>
		<polygon class="st7" points="136.6,306.4 125.3,308 128.2,304.5 143,303.8 		"/>
		<polygon class="st7" points="143,298.4 153.2,306.9 155.7,306.9 142,295.8 		"/>
		<polygon class="st7" points="214.9,325.4 230.8,338.6 234.7,338.6 213.3,321.3 		"/>
		<polygon class="st6" points="275.1,279.8 279.6,281 282.3,284.2 276,290.4 243.4,294.5 246.1,286.7 		"/>
		<polygon class="st7" points="180,310.6 166.3,300 166.3,295.8 183.8,311.4 		"/>
		<polygon class="st7" points="212.5,389.6 207.5,373 209.9,369.6 215.2,392.4 		"/>
		<polygon class="st7" points="8.6,307.8 3.2,300.4 5.9,300.4 14,309 		"/>
		<polygon class="st7" points="24.8,298.1 32.2,308.4 32.2,304.5 23.1,295.8 		"/>
		<polygon class="st5" points="176.1,88 164.6,97.8 0,97.8 0,88 		"/>
		<polygon class="st4" points="302.5,102.2 285.3,92.9 259,97.6 254.7,119.5 		"/>
		<polygon class="st4" points="268.7,102.2 230.2,114.4 241.8,121.4 254.7,119.5 		"/>
		<circle class="st7" cx="273.8" cy="103.2" r="4"/>
		<polygon class="st9" points="259,118 288.2,123.3 298.4,119.5 314.3,136.7 302.5,102.2 		"/>
		<polygon class="st9" points="308.4,119.5 328.1,126 340.7,164.1 321.7,140.5 310.8,126.4 		"/>
		<polygon class="st10" points="224,293.6 227.9,277.8 219.6,265.3 201.8,260.3 210.1,276.4 		"/>
		<polygon class="st7" points="225.5,287.8 227.2,289.6 224.9,291.2 216.4,290.9 217.7,288.3 		"/>
		<polygon class="st6" points="220.9,286.3 212.2,287 212.2,291 221.4,288.6 223,285.7 		"/>
		<polygon class="st7" points="217.3,279.8 217.5,283 215,285 213.9,282.9 		"/>
		<polygon class="st11" points="201.8,260.3 171,288 177.1,300.7 188.2,313.8 224,293.6 210.1,276.4 		"/>
		<circle class="st7" cx="198" cy="287.1" r="7.8"/>
		<polygon class="st6" points="253.6,284.2 255.9,283.7 256.1,286.5 239.9,292.1 241.1,290.4 		"/>
		<polygon class="st7" points="267.1,288.3 252.5,283.7 248,283.7 251.5,285.3 264.8,288.8 		"/>
		<polygon class="st6" points="257.5,288.3 236,294 234.7,296 255.5,290.4 		"/>
		<polygon class="st6" points="244.5,351.5 223,357.1 221.7,359.1 242.5,353.5 		"/>
		<polygon class="st7" points="256.9,285 242.9,285 240.4,287 254.3,287.1 		"/>
		<polygon class="st7" points="254.5,293.1 243,287.9 240.6,287.9 251.8,293.4 		"/>
		<polygon class="st7" points="278,278.9 271.7,283.7 271.3,286.2 280.5,279.2 		"/>
		<polygon class="st7" points="264.2,285 265.6,286.2 266.8,285 263,282.6 		"/>
		<polygon class="st7" points="270.4,288.4 258.3,293.6 261.2,294.1 273.2,288.4 		"/>
		<polygon class="st4" points="286.7,327 286.7,394.7 331,394.7 349.8,327 370.9,394.7 429.3,395.6 408.1,327 		"/>
	</g>
</g>
</svg>
