<svg xmlns="http://www.w3.org/2000/svg" viewBox="0 0 205.66 315.59"><defs><style>.cls-1,.cls-4,.cls-5{fill:#ffd063;}.cls-2{fill:#ffc800;}.cls-3{font-size:10.88px;font-family:CapitalGothic-ExtraLight, Capital Gothic;font-weight:200;}.cls-4{font-size:22.81px;}.cls-4,.cls-5{font-family:CapitalGothic-BlackItalic, Capital Gothic;font-weight:800;font-style:italic;}.cls-5{font-size:22.81px;}.cls-6{letter-spacing:-0.06em;}.cls-7{letter-spacing:-0.01em;}</style></defs><title>stagnation</title><g id="Layer_2" data-name="Layer 2"><g id="Layer_1-2" data-name="Layer 1"><polygon class="cls-1" points="106.66 35.88 93.91 48.47 96 49.86 109.43 36.33 106.66 35.88"/><polygon class="cls-1" points="52.08 77.51 63.19 70.98 63.19 75.44 52.08 79.98 52.08 77.51"/><polygon class="cls-1" points="59.67 12.17 63.9 0 66.78 3.4 61.27 14.05 59.67 12.17"/><polygon class="cls-2" points="180.82 46.95 196.72 60.13 200.59 60.13 179.23 42.87 180.82 46.95"/><polygon class="cls-2" points="132.32 106.32 127.28 89.75 129.7 86.32 134.99 109.1 132.32 106.32"/><text class="cls-3" transform="translate(181.1 209.59)">2010</text><text class="cls-3" transform="translate(0 297.86)">1980</text><polygon class="cls-1" points="149.34 157.81 164.93 131.4 162.71 130.64 147.44 152.9 149.34 157.81"/><path class="cls-1" d="M128.65,180.27l-15.52,22.61c1.33,1.09,2.74,2.17,4.12,3.32l9.49-13.44Z"/><path class="cls-1" d="M101.25,217.31l1.83,5.12,14-12.37c-1.08-1.44-2.2-2.81-3.24-4.17Z"/><polygon class="cls-1" points="168.63 127.59 194.59 103.53 193.38 101.08 163.86 129.31 168.63 127.59"/><polygon class="cls-1" points="98.51 221.18 71.26 237.47 76.09 238.8 97.45 226.65 98.51 221.18"/><polygon class="cls-1" points="41.44 256.6 12.12 279.27 13.16 282.82 43.06 257.7 41.44 256.6"/><polygon class="cls-1" points="69.41 238.65 42.84 255.59 44.56 256.74 72.09 240.94 69.41 238.65"/><polygon class="cls-1" points="143.31 158.91 131.55 176.05 130.96 186.78 138.72 175.79 148.42 159.37 143.31 158.91"/><text class="cls-4" transform="translate(86.3 214.33) rotate(-54.45)">Productivity</text><text class="cls-5" transform="translate(47.23 301.6) rotate(-0.12)"><tspan class="cls-6">W</tspan><tspan x="22.79" y="0">a</tspan><tspan class="cls-7" x="36.06" y="0">g</tspan><tspan x="48.63" y="0">es</tspan></text><polygon class="cls-1" points="164.03 287.37 165.24 292.35 187.96 278.6 193.38 271.39 164.03 287.37"/><polygon class="cls-1" points="42.35 309.33 70.47 315.35 71.28 312.63 44.61 307.57 42.35 309.33"/><polygon class="cls-1" points="138.5 299.27 163.74 293.08 162.52 288.06 147.25 293.16 139.77 296.63 138.5 299.27"/><polygon class="cls-1" points="42.48 307.16 41.94 307.06 12.12 304.02 10.82 308.22 33.87 308.9 42.48 307.16"/><polygon class="cls-1" points="97.42 312.3 72.91 312.86 72.09 315.59 99.81 315.59 97.42 312.3"/><polygon class="cls-1" points="134.85 297.3 132.96 297.94 104.28 311.45 103.58 315.19 135.16 300.09 136.76 299.7 134.85 297.3"/></g></g></svg>