<svg xmlns="http://www.w3.org/2000/svg" viewBox="0 0 202.79 274.57"><defs><style>.cls-1{fill:#a0aeb5;}.cls-2{fill:#606f7b;}.cls-3{fill:#404b55;}</style></defs><title>trash</title><g id="Layer_2" data-name="Layer 2"><g id="Layer_1-2" data-name="Layer 1"><polygon class="cls-1" points="6.88 49.09 25.75 256.22 73.34 274.57 155.76 274.57 198.56 234.99 198.27 45.42 6.88 49.09"/><polyline class="cls-2" points="0 39.26 30.84 85.87 101.39 91.93 159.32 77.49 202.79 42.26 202.79 39.26"/><polygon class="cls-1" points="42.47 7 109.39 0 177.9 7 202.79 39.26 162.82 67.24 101.63 83.62 36.4 76.33 0 39.26 42.47 7"/><polygon class="cls-3" points="51.11 12.11 108.21 6.13 166.68 12.11 187.92 39.63 153.81 63.51 101.59 77.49 45.93 71.27 14.87 39.63 51.11 12.11"/></g></g></svg>