<?xml version="1.0" encoding="utf-8"?>
<!-- Generator: Adobe Illustrator 23.0.6, SVG Export Plug-In . SVG Version: 6.00 Build 0)  -->
<svg version="1.1" id="Layer_1" xmlns="http://www.w3.org/2000/svg" xmlns:xlink="http://www.w3.org/1999/xlink" x="0px" y="0px"
	 viewBox="0 0 272.4 176.9" style="enable-background:new 0 0 272.4 176.9;" xml:space="preserve">
<style type="text/css">
	.st0{fill:#BBC0C4;}
	.st1{fill:#DCE4EA;}
</style>
<title>uniongraph</title>
<polygon class="st0" points="70.9,38.6 70,34.5 66.5,35.6 67,40.9 63,42.7 61.9,42.1 59.1,36.5 61.1,36 62.2,36.6 62.5,39.1 
	65.3,38.9 65.1,34.1 70.5,32.4 71.6,33 71.9,39.2 "/>
<polygon class="st1" points="71.9,39.2 71.1,35.1 67.6,36.2 69.1,41.7 63,42.7 60.2,37.1 62.2,36.6 63.6,39.7 65.9,39.7 66.2,34.7 
	71.6,33 74.2,35.1 73.8,38.8 "/>
<polygon class="st0" points="96.2,41.1 92.8,38.8 91,42 95.1,45.5 93.4,49.5 92.2,49.9 86.3,47.8 87.4,46 88.6,45.7 90.6,47.3 
	92.4,45.2 88.9,41.9 91.7,36.9 92.9,36.6 97.4,40.8 "/>
<polygon class="st1" points="97.4,40.8 93.9,38.4 92.2,41.7 97.1,44.6 93.4,49.5 87.5,47.5 88.6,45.7 91.7,46.9 93.4,45.3 
	90.1,41.5 92.9,36.6 96.2,36.2 98.4,39.2 "/>
<polygon class="st0" points="120.7,63 122.1,59.1 118.4,58.3 116.2,63.1 111.8,62.5 111.2,61.5 111.6,55.3 113.6,55.8 114.2,56.9 
	113.3,59.2 115.8,60.4 118,56.2 123.6,57.6 124.2,58.6 121.3,64.1 "/>
<polygon class="st1" points="121.3,64.1 122.7,60.1 119.1,59.3 117.6,64.8 111.8,62.5 112.3,56.3 114.2,56.9 113.9,60.2 115.9,61.4 
	118.7,57.2 124.2,58.6 125.4,61.7 123.1,64.7 "/>
<polygon class="st0" points="139.9,88.4 139.8,92.6 143.5,92.2 144.1,86.9 148.4,86.1 149.4,86.8 150.9,92.9 148.9,93 147.9,92.2 
	148.1,89.7 145.4,89.3 144.6,94 138.9,94.5 138,93.7 138.9,87.6 "/>
<polygon class="st1" points="138.9,87.6 138.9,91.8 142.6,91.4 142.2,85.7 148.4,86.1 150,92.1 147.9,92.2 147.2,88.9 145,88.4 
	143.6,93.2 138,93.7 135.8,91.1 137.1,87.6 "/>
<polygon class="st0" points="170.9,115.5 173.2,112 169.9,110.3 166.5,114.4 162.4,112.7 162.1,111.6 164.1,105.6 165.9,106.7 
	166.2,107.9 164.6,109.9 166.8,111.7 170,108.2 175,110.9 175.4,112 171.2,116.6 "/>
<polygon class="st1" points="171.2,116.6 173.6,113.1 170.3,111.4 167.4,116.4 162.4,112.7 164.4,106.8 166.2,107.9 165,111 
	166.6,112.7 170.4,109.3 175.4,112 175.8,115.4 172.8,117.7 "/>
<polygon class="st0" points="196,110.4 191.8,110 191.9,113.7 197.1,114.8 197.5,119.1 196.6,120 190.5,121 190.6,118.9 
	191.4,118.1 194,118.5 194.6,115.8 189.9,114.5 190,108.9 190.9,108 196.9,109.5 "/>
<polygon class="st1" points="196.9,109.5 192.7,109.1 192.7,112.8 198.4,113 197.5,119.1 191.3,120.1 191.4,118.1 194.8,117.7 
	195.5,115.5 190.8,113.7 190.9,108 193.6,106.1 197,107.7 "/>
<polygon class="st0" points="224.1,118.3 223.2,114.2 219.7,115.3 220.3,120.7 216.2,122.4 215.1,121.8 212.3,116.2 214.3,115.7 
	215.4,116.3 215.8,118.8 218.6,118.6 218.3,113.8 223.8,112.1 224.8,112.7 225.2,118.9 "/>
<polygon class="st1" points="225.2,118.9 224.3,114.8 220.8,115.9 222.3,121.4 216.2,122.4 213.4,116.8 215.4,116.3 216.8,119.4 
	219.1,119.4 219.4,114.3 224.8,112.7 227.5,114.8 227,118.5 "/>
<polygon class="st0" points="245,133.8 248.9,132.3 247.2,129 242,130.4 239.7,126.7 240.1,125.5 245.1,121.9 245.9,123.8 
	245.6,124.9 243.1,125.7 243.8,128.4 248.5,127.4 251,132.5 250.6,133.6 244.6,135 "/>
<polygon class="st1" points="244.6,135 248.5,133.5 246.8,130.2 241.6,132.6 239.7,126.7 244.7,123 245.6,124.9 242.8,126.8 
	243.1,129.1 248.1,128.5 250.6,133.6 249,136.6 245.3,136.7 "/>
</svg>
