<svg xmlns="http://www.w3.org/2000/svg" viewBox="0 0 369.19 203.87"><defs><style>.cls-1{fill:#404b55;}.cls-2{fill:#eaad80;}.cls-3{fill:#9bafba;}.cls-4{fill:#a0aeb5;}.cls-5{fill:#f25347;}.cls-6{fill:#ffc800;}.cls-7{fill:#637684;}.cls-8{fill:#8c7260;}.cls-9{fill:#f3f8ff;}.cls-10{fill:#b28070;}.cls-11{fill:#d3d3d3;}.cls-12{fill:#2d2d2d;}.cls-13{fill:#436826;}.cls-14{fill:#b7b7b7;}</style></defs><title>united</title><g id="Layer_2" data-name="Layer 2"><g id="Layer_1-2" data-name="Layer 1"><polygon class="cls-1" points="206.79 83.89 199.52 85.61 198.42 79.64 209.48 74.57 221.26 92.34 209.21 89.88 206.79 83.89"/><polygon class="cls-1" points="209.21 89.88 201.84 101.08 215.5 95.17 217.68 91.47 209.21 89.88"/><polygon class="cls-1" points="208.52 109.87 221.34 92.46 221.26 92.34 221.26 92.34 209.21 89.88 209.25 89.96 209.29 90.08 200.79 91.1 195.91 109.87 195.18 109.87 197.1 87.01 184.72 94.34 177.38 88.63 187.95 109.87 183.75 203.87 214.53 203.87 208.52 109.87"/><polygon class="cls-1" points="180.38 80.13 175.47 84.18 184.55 92.58 189.28 89.19 180.38 80.13"/><polygon class="cls-1" points="187.88 75.11 181.73 79.12 190.85 89.22 196.68 85.01 187.88 75.11"/><polygon class="cls-1" points="195.01 70.99 189.29 74.57 197.88 83.91 197.87 78.65 200.64 77.15 195.01 70.99"/><polygon class="cls-1" points="207.2 74.57 201.67 76.95 197.1 70.65 203.58 67.07 207.2 74.57"/><polygon class="cls-1" points="197.1 87.01 199.52 85.61 209.76 79.67 214.02 91.81 200.85 111.79 192.61 114.55 189.83 101.08 197.1 87.01"/><polygon class="cls-1" points="203.58 67.07 207.2 74.57 209.48 74.57 198.42 97 182.81 97.11 177.38 88.63 175.47 84.18 181.73 79.12 187.88 75.11 195.01 70.99 203.58 67.07"/><polygon class="cls-1" points="258.24 109.87 268.37 88.63 261.34 94.34 249.47 87.01 251.31 109.87 250.61 109.87 245.94 91.1 237.79 90.08 237.84 89.96 237.87 89.88 226.32 92.34 226.32 92.34 226.25 92.46 238.53 109.87 232.72 168.16 232.28 203.87 262.39 203.87 258.24 109.87"/><polygon class="cls-1" points="265.5 80.13 270.21 84.18 261.5 92.58 256.97 89.19 265.5 80.13"/><polygon class="cls-1" points="258.31 75.11 264.21 79.12 255.47 89.22 249.88 85.01 258.31 75.11"/><polygon class="cls-1" points="251.48 70.99 256.96 74.57 248.72 83.91 248.73 78.65 246.08 77.15 251.48 70.99"/><polygon class="cls-1" points="239.8 74.57 245.09 76.95 249.47 70.65 243.27 67.07 239.8 74.57"/><polygon class="cls-1" points="262.18 148.44 232.58 148.68 229.17 203.87 263.05 203.87 262.18 148.44"/><polygon class="cls-1" points="249.47 87.01 247.15 85.61 237.34 79.67 233.26 91.81 245.88 111.79 253.78 114.55 256.44 101.08 249.47 87.01"/><polygon class="cls-1" points="243.27 67.07 239.8 74.57 237.61 74.57 248.21 97 263.17 97.11 268.37 88.63 270.21 84.18 264.21 79.12 258.31 75.11 251.48 70.99 243.27 67.07"/><polygon class="cls-1" points="240.19 83.89 247.15 85.61 248.21 79.64 237.61 74.57 226.32 92.34 237.87 89.88 240.19 83.89"/><polygon class="cls-1" points="237.87 89.88 244.93 101.08 231.84 95.17 229.75 91.47 237.87 89.88"/><polygon class="cls-1" points="357.23 109.87 367.36 88.63 360.32 94.34 348.46 87.01 350.3 109.87 349.6 109.87 344.92 91.1 336.77 90.08 336.82 89.96 336.85 89.88 325.31 92.34 325.31 92.34 325.23 92.46 337.51 109.87 331.71 168.16 331.27 203.87 361.37 203.87 357.23 109.87"/><polygon class="cls-1" points="364.49 80.13 369.19 84.18 360.49 92.58 355.96 89.19 364.49 80.13"/><polygon class="cls-1" points="357.29 75.11 363.19 79.12 354.45 89.22 348.86 85.01 357.29 75.11"/><polygon class="cls-1" points="350.47 70.99 355.94 74.57 347.71 83.91 347.72 78.65 345.06 77.15 350.47 70.99"/><polygon class="cls-1" points="338.78 74.57 344.08 76.95 348.46 70.65 342.25 67.07 338.78 74.57"/><polygon class="cls-1" points="361.3 156.6 330.99 157.88 328.16 203.87 362.03 203.87 361.3 156.6"/><polygon class="cls-1" points="348.46 87.01 346.14 85.61 336.32 79.67 332.25 91.81 344.87 111.79 352.76 114.55 355.42 101.08 348.46 87.01"/><polygon class="cls-1" points="342.25 67.07 338.78 74.57 336.59 74.57 347.19 97 362.15 97.11 367.36 88.63 369.19 84.18 363.19 79.12 357.29 75.11 350.47 70.99 342.25 67.07"/><polygon class="cls-1" points="339.18 83.89 346.14 85.61 347.19 79.64 336.59 74.57 325.31 92.34 336.85 89.88 339.18 83.89"/><polygon class="cls-1" points="336.85 89.88 343.91 101.08 330.82 95.17 328.73 91.47 336.85 89.88"/><polygon class="cls-2" points="75.15 91.05 54.37 91.05 46.62 203.87 79.79 203.87 75.15 91.05"/><polygon class="cls-2" points="75.15 91.05 86.43 65.72 77.54 71.83 65.38 63.78 68.64 91.05 75.15 91.05"/><polyline class="cls-3" points="54.56 52.58 28.81 28.99 30.08 26.27 55 48.8"/><polygon class="cls-1" points="66.72 54.62 87.01 71.99 87.83 79.47 79.25 78.63 54.75 57.86 51.91 48.26 59.56 48.15 66.72 54.62"/><polygon class="cls-3" points="30.08 26.27 33.34 18.17 13.25 0 0.16 20.13 21.52 34.88 28.81 28.99 30.08 26.27"/><polygon class="cls-1" points="14.35 5.51 29.48 18.33 29.73 19.94 13.23 6.74 13.31 4.57 14.35 5.51"/><polygon class="cls-1" points="10.26 9.16 27.53 22.78 27.14 24.43 8.96 10 10.26 9.16"/><polygon class="cls-1" points="7.38 12.95 25.53 26.81 24.15 27.93 6.54 13.48 7.38 12.95"/><polygon class="cls-1" points="4.75 16.06 22.29 29.18 21.62 31.13 4.24 17.24 4.75 16.06"/><polygon class="cls-2" points="54.37 91.05 39.07 65.81 52.17 48.95 63.98 54.99 62.8 62.12 55.05 60.06 52.38 67.44 61.45 68.66 67.86 91.05 54.37 91.05"/><polygon class="cls-2" points="54.61 48.95 60.51 51.79 65.38 44.27 58.47 40 54.61 48.95"/><polygon class="cls-2" points="67.62 44.68 73.72 48.95 65.38 58.5 64.56 53.82 61.61 52.02 67.62 44.68"/><polygon class="cls-2" points="75.22 49.59 81.79 54.37 72.06 66.42 65.83 61.41 75.22 49.59"/><polygon class="cls-2" points="83.23 55.58 88.47 60.41 78.78 70.43 73.74 66.38 83.23 55.58"/><polygon class="cls-2" points="231.58 160.58 223.65 91.05 239.07 70.29 238.98 70.14 225.67 67.31 225.72 67.44 216.3 68.66 210.9 91.05 210.09 91.05 212.21 63.78 198.49 72.52 190.36 65.72 202.07 91.05 197.25 203.87 232.09 203.87 231.58 160.58"/><polygon class="cls-2" points="193.68 55.58 188.24 60.41 198.3 70.43 203.54 66.38 193.68 55.58"/><polygon class="cls-1" points="84.35 169.46 43.63 167.86 41.72 203.87 85.67 203.87 84.35 169.46"/><polygon class="cls-4" points="235.04 164.43 196.71 164.43 195.08 203.87 238.39 203.87 235.04 164.43"/><polygon class="cls-1" points="209.85 47.44 206.74 121.76 208.25 123.96 209.55 120.71 211.32 122.52 212.85 120.17 214.71 123.6 215.47 119.62 217.68 122.92 221.21 43.97 209.85 47.44"/><polygon class="cls-2" points="202 49.59 195.18 54.37 205.79 66.95 212.25 61.93 202 49.59"/><polygon class="cls-5" points="213.49 86.86 218.16 82.22 218.57 76.54 213.91 72.49 209.76 77.38 209.55 83.3 213.49 86.86"/><polygon class="cls-2" points="209.89 44.68 203.56 48.95 212.21 58.5 213.07 53.82 216.13 52.02 209.89 44.68"/><polygon class="cls-2" points="223.4 48.95 217.28 51.79 212.21 44.27 219.39 40 223.4 48.95"/><polygon class="cls-2" points="225.93 48.95 213.67 54.99 214.9 62.12 222.94 60.06 225.67 67.31 238.98 70.14 225.93 48.95"/><polygon class="cls-1" points="116.04 83.89 123 85.61 124.06 79.64 113.45 74.57 102.17 92.34 113.71 89.88 116.04 83.89"/><polygon class="cls-1" points="113.71 89.88 120.77 101.08 107.69 95.17 105.59 91.47 113.71 89.88"/><polygon class="cls-1" points="134.09 109.87 144.22 88.63 137.19 94.34 125.32 87.01 127.16 109.87 126.46 109.87 121.78 91.1 113.64 90.08 113.68 89.96 113.71 89.88 102.17 92.34 102.17 92.34 102.09 92.46 114.37 109.87 108.62 203.87 138.11 203.87 134.09 109.87"/><polygon class="cls-1" points="141.35 80.13 146.05 84.18 137.35 92.58 132.82 89.19 141.35 80.13"/><polygon class="cls-1" points="134.15 75.11 140.05 79.12 131.31 89.22 125.72 85.01 134.15 75.11"/><polygon class="cls-1" points="127.33 70.99 132.8 74.57 124.57 83.91 124.58 78.65 121.93 77.15 127.33 70.99"/><polygon class="cls-1" points="115.64 74.57 120.94 76.95 125.32 70.65 119.11 67.07 115.64 74.57"/><polygon class="cls-1" points="125.32 87.01 123 85.61 113.18 79.67 109.11 91.81 121.73 111.79 129.62 114.55 132.29 101.08 125.32 87.01"/><polygon class="cls-1" points="119.11 67.07 115.64 74.57 113.45 74.57 124.06 97 139.01 97.11 144.22 88.63 146.05 84.18 140.05 79.12 134.15 75.11 127.33 70.99 119.11 67.07"/><polygon class="cls-1" points="28.8 86.25 22.12 87.94 21.11 82.08 31.28 77.1 42.11 94.55 31.03 92.14 28.8 86.25"/><polygon class="cls-1" points="31.03 92.14 24.25 103.13 36.81 97.33 38.82 93.69 31.03 92.14"/><polygon class="cls-1" points="35.97 168.98 30.4 111.76 42.18 94.67 42.11 94.55 42.11 94.55 31.03 92.14 31.06 92.21 31.1 92.33 23.29 93.33 18.8 111.76 18.13 111.76 19.89 89.31 8.51 96.51 1.76 90.91 11.48 111.76 7.51 203.87 36.38 203.87 35.97 168.98"/><polygon class="cls-1" points="4.51 82.56 0 86.54 8.35 94.78 12.7 91.45 4.51 82.56"/><polygon class="cls-1" points="11.42 77.63 5.76 81.57 14.14 91.48 19.5 87.36 11.42 77.63"/><polygon class="cls-1" points="17.97 73.59 12.71 77.1 20.61 86.27 20.6 81.11 23.15 79.63 17.97 73.59"/><polygon class="cls-1" points="29.18 77.1 24.1 79.44 19.89 73.25 25.85 69.74 29.18 77.1"/><polygon class="cls-1" points="31.88 116.53 9.46 116.35 6.97 203.87 39.15 203.87 31.88 116.53"/><polygon class="cls-1" points="34.03 115.78 6.05 115.43 7.21 127.6 35.45 127.06 34.03 115.78"/><polygon class="cls-1" points="32.76 127.1 32.87 128.36 9.1 128.76 9.14 127.56 32.76 127.1"/><polygon class="cls-1" points="19.89 89.31 22.12 87.94 31.54 82.11 35.45 94.03 23.34 113.64 15.77 116.35 13.21 103.13 19.89 89.31"/><polygon class="cls-1" points="25.85 69.74 29.18 77.1 31.28 77.1 21.11 99.12 6.76 99.23 1.76 90.91 0 86.54 5.76 81.57 11.42 77.63 17.97 73.59 25.85 69.74"/><polygon class="cls-1" points="300.44 86.71 293.79 88.4 292.78 82.55 302.91 77.6 313.7 94.98 302.67 92.58 300.44 86.71"/><polygon class="cls-1" points="302.67 92.58 295.91 103.53 308.43 97.75 310.43 94.13 302.67 92.58"/><polygon class="cls-1" points="307.58 169.14 302.03 112.13 313.77 95.1 313.7 94.98 313.7 94.98 302.67 92.58 302.7 92.65 302.74 92.77 294.95 93.77 290.48 112.13 289.81 112.13 291.57 89.77 280.23 96.93 273.5 91.36 283.19 112.13 279.23 203.87 308 203.87 307.58 169.14"/><polygon class="cls-1" points="276.25 83.04 271.75 87 280.07 95.21 284.4 91.89 276.25 83.04"/><polygon class="cls-1" points="283.13 78.12 277.48 82.05 285.84 91.93 291.18 87.81 283.13 78.12"/><polygon class="cls-1" points="289.65 74.1 284.41 77.6 292.28 86.74 292.28 81.59 294.81 80.12 289.65 74.1"/><polygon class="cls-1" points="300.82 77.6 295.76 79.93 291.57 73.76 297.5 70.26 300.82 77.6"/><polygon class="cls-1" points="303.52 116.88 281.17 116.7 278.69 203.87 310.75 203.87 303.52 116.88"/><polygon class="cls-1" points="305.66 116.13 277.77 115.79 278.93 127.91 307.07 127.38 305.66 116.13"/><polygon class="cls-1" points="304.39 127.42 304.5 128.67 280.82 129.06 280.85 127.87 304.39 127.42"/><polygon class="cls-1" points="291.57 89.77 293.79 88.4 303.17 82.59 307.07 94.47 295 114 287.45 116.7 284.91 103.53 291.57 89.77"/><polygon class="cls-1" points="297.5 70.26 300.82 77.6 302.91 77.6 292.78 99.53 278.48 99.64 273.5 91.36 271.75 87 277.48 82.05 283.13 78.12 289.65 74.1 297.5 70.26"/><polygon class="cls-2" points="214.15 62.58 216.13 65.48 220.75 63.78 219.85 62.12 217.27 63.49 214.15 62.58"/><polygon class="cls-6" points="211.61 77.13 213.84 79.25 216.37 77.13 217.08 77.75 214.96 80.11 217.08 81.99 216.21 82.86 214.34 80.89 212.13 82.86 211.61 81.68 213.44 79.99 210.87 77.99 211.61 77.13"/><polygon class="cls-7" points="156.04 79 159.23 81.91 162.92 78.17 159.04 75.7 156.04 79"/><polygon class="cls-8" points="156.2 91.05 168.29 65.72 159.9 72.52 145.75 63.78 147.94 91.05 147.1 91.05 141.53 68.66 131.81 67.44 131.86 67.31 131.9 67.21 118.13 70.14 118.13 70.14 118.04 70.29 132.69 91.05 125.77 160.58 125.24 203.87 161.18 203.87 156.2 91.05"/><polygon class="cls-1" points="115.05 60.13 156.03 90.21 176.11 70.58 129.69 36.51 115.05 60.13"/><polygon class="cls-9" points="121.33 61.75 149.79 83.24 165.11 67.72 132.94 43.08 121.33 61.75"/><polygon class="cls-1" points="141.95 61.91 141.51 66.85 143.5 69.52 146.69 71.31 149.47 70.5 151.85 65.77 150.37 61.06 145.48 59.34 141.95 61.91"/><polygon class="cls-9" points="144.19 65.89 146.73 67.96 148.66 65.63 146.14 63.23 144.19 65.89"/><path class="cls-3" d="M159.78,78.33l1.84,1.19-2.16,2-1.65-1.67,2-1.51m-.05-1.23-.56.44-2,1.51-.89.68.79.81,1.65,1.67.67.69.72-.65,2.15-2,1-.87-1.08-.71-1.84-1.19-.59-.39Z"/><polygon class="cls-9" points="146.44 66.72 150.39 69.85 151.18 68.78 147.41 66.01 146.44 66.72"/><polygon class="cls-8" points="164.86 55.58 170.47 60.41 160.09 70.43 154.69 66.38 164.86 55.58"/><polygon class="cls-8" points="156.28 49.59 163.32 54.37 152.9 66.42 146.23 61.41 156.28 49.59"/><polygon class="cls-8" points="148.14 44.68 154.67 48.95 144.85 60.09 144.86 53.82 141.7 52.02 148.14 44.68"/><polygon class="cls-8" points="134.21 48.95 140.52 51.79 145.75 44.27 138.34 40 134.21 48.95"/><polygon class="cls-8" points="134.68 60.06 142.98 62.12 144.24 54.99 131.59 48.95 118.13 70.14 131.9 67.21 134.68 60.06"/><polygon class="cls-10" points="320.26 91.05 335.67 70.29 335.58 70.14 322.27 67.31 322.33 67.44 312.91 68.66 307.5 91.05 306.69 91.05 308.82 63.78 295.1 72.52 286.97 65.72 298.68 91.05 293.86 203.87 328.3 203.87 320.26 91.05"/><polygon class="cls-11" points="338.5 58.9 292.56 81.58 282.15 68.28 322.22 33.91 338.5 58.9"/><polygon class="cls-10" points="290.29 55.58 284.85 60.41 294.91 70.43 300.15 66.38 290.29 55.58"/><polygon class="cls-12" points="322.93 95.31 295.41 95.63 291.64 203.87 334.8 203.87 322.93 95.31"/><polygon class="cls-13" points="317.95 57.9 310.88 54.19 306.53 56.38 304.28 62.53 312.52 64.52 317.95 57.9"/><polygon class="cls-10" points="298.61 49.59 291.79 54.37 301.89 66.42 308.35 61.41 298.61 49.59"/><polygon class="cls-10" points="306.5 44.68 300.17 48.95 308.82 58.5 309.67 53.82 312.74 52.02 306.5 44.68"/><polygon class="cls-10" points="320 48.95 313.88 51.79 308.82 44.27 316 40 320 48.95"/><polygon class="cls-10" points="322.54 48.95 310.28 54.99 311.5 62.12 319.55 60.06 322.27 67.31 335.58 70.14 322.54 48.95"/><polygon class="cls-10" points="310.76 62.58 313.2 66.17 317.82 64.47 316.46 62.12 313.88 63.49 310.76 62.58"/><polygon class="cls-14" points="320 35.81 322.02 34.08 338.5 58.9 335.67 60.29 320 35.81"/><polygon class="cls-11" points="321.16 32.77 322.93 31.44 323.99 32.1 329.02 29.59 343.33 55.21 340.4 57.98 340.68 59.09 339 59.69 321.16 32.77"/><polygon class="cls-11" points="158.72 96.63 130.84 96.85 121.73 203.87 161.84 203.87 158.72 96.63"/><polygon class="cls-11" points="128.17 95.93 162.96 95.51 161.51 110.3 126.41 109.65 128.17 95.93"/><polygon class="cls-14" points="129.75 109.69 129.62 111.22 159.16 111.7 159.12 110.25 129.75 109.69"/><polygon class="cls-8" points="131.9 67.21 140.32 80.56 124.71 73.52 122.22 69.11 131.9 67.21"/></g></g></svg>